<svg width="212" height="48" viewBox="0 0 212 48" fill="none" xmlns="http://www.w3.org/2000/svg">
<path d="M151.463 25.4139C149.942 25.4139 149.181 26.4404 149.181 28.4935V34.7155C149.181 36.9361 148.441 38.0465 146.962 38.0465C145.44 38.0465 144.68 37.0199 144.68 34.9669L144.743 13.0956C144.743 11.0425 145.483 10.016 146.962 10.016C148.441 10.016 149.181 11.1054 149.181 13.2841V18.8776C149.181 21.0564 150.026 22.1458 151.717 22.1458C152.562 22.1458 153.661 21.2868 155.013 19.569L159.197 12.09C160.043 10.6654 160.888 9.95312 161.733 9.95312C162.325 9.95312 162.747 10.2045 163.001 10.7073C163.297 11.1682 163.445 11.5662 163.445 11.9014C163.445 12.3204 163.36 12.7185 163.191 13.0956L157.105 22.9628C156.725 23.3399 156.535 23.696 156.535 24.0312C156.535 24.5759 156.704 24.9739 157.042 25.2253L163.064 34.7155C163.318 35.2602 163.445 35.7001 163.445 36.0353C163.445 36.4962 163.255 36.9571 162.874 37.418C162.494 37.837 162.05 38.0465 161.543 38.0465C160.782 38.0465 160 37.4389 159.197 36.2238L153.618 27.3622C153.111 26.7756 152.668 26.3147 152.287 25.9795C151.907 25.6024 151.632 25.4139 151.463 25.4139Z" fill="black"/>
<path d="M102.023 11.8387C102.023 11.0426 102.763 10.6445 104.242 10.6445H120.408C121.93 10.6445 122.69 11.0426 122.69 11.8387C122.69 12.6766 121.908 13.0956 120.345 13.0956H118.126C115.717 13.0956 114.512 14.185 114.512 16.3638V34.7156C114.512 36.8943 113.773 37.9837 112.294 37.9837C110.857 37.9837 110.138 36.8943 110.138 34.7156V16.3638C110.138 14.185 108.934 13.0956 106.525 13.0956H104.432C102.826 13.0956 102.023 12.6766 102.023 11.8387Z" fill="black"/>
<path d="M93.607 13.0956H89.2961C86.7603 13.0956 85.4924 14.4154 85.4924 17.0551V19.4433C85.4924 21.9573 86.7391 23.2143 89.2327 23.2143H93.7338C96.2273 23.2143 97.4741 21.664 97.4741 18.5635V16.2381C97.4741 14.1431 96.1851 13.0956 93.607 13.0956ZM97.4741 34.2128V28.6821C97.4741 26.629 96.1851 25.6025 93.607 25.6025H89.2961C86.7603 25.6025 85.4924 26.629 85.4924 28.6821V34.2756C85.4924 36.4544 84.7528 37.5437 83.2735 37.5437C81.7943 37.5437 81.0547 36.5591 81.0547 34.5899V15.1696C81.0547 12.1529 82.5973 10.6445 85.6826 10.6445H96.65C100.158 10.6445 101.912 12.1529 101.912 15.1696V34.527C101.912 36.5382 101.172 37.5437 99.693 37.5437C98.2137 37.5437 97.4741 36.4334 97.4741 34.2128Z" fill="black"/>
<path d="M65.8952 37.5448C64.4582 37.5448 63.8031 27.3843 63.8031 25.1636C63.8031 23.8228 63.4861 22.3564 62.8522 20.7642C62.2605 19.1301 61.4152 17.4332 60.3164 15.6735C59.936 15.1288 59.5767 14.7307 59.2386 14.4793C58.9005 14.2279 58.6469 14.0813 58.4779 14.0394C58.0975 14.0394 57.9073 14.3955 57.9073 15.1078V34.5281C57.9073 36.5392 57.1466 37.5448 55.6251 37.5448C54.1459 37.5448 53.4062 36.5392 53.4062 34.5281V15.045C53.4062 11.9863 54.6319 10.457 57.0832 10.457H58.2877C59.8144 10.457 61.1404 11.3278 62.5113 13.1774C62.6548 13.3712 62.7547 13.594 62.8118 13.8283C63.605 17.0823 68.2285 17.093 69.0366 13.8426L69.1283 13.4738C69.5323 12.4027 70.354 11.8188 71.0302 11.2741C71.7487 10.7294 72.5728 10.457 73.5026 10.457H74.8339C77.2429 10.457 78.4475 11.9863 78.4475 15.045V34.5281C78.4475 36.5392 77.7078 37.5448 76.2286 37.5448C74.7494 37.5448 74.0098 36.5392 74.0098 34.5281V15.1078C73.8407 14.3955 73.6083 14.0394 73.3124 14.0394C72.8475 14.0394 72.2558 14.5841 71.5374 15.6735C70.3962 17.4332 69.551 19.1301 69.0015 20.7642C68.4521 22.3564 68.1774 23.8228 68.1774 25.1636C68.1774 27.3843 67.3744 37.5448 65.8952 37.5448Z" fill="black"/>
<path d="M48.1759 37.7305C46.7389 37.7305 46.0204 36.7039 46.0204 34.6509L45.957 13.2195C45.957 11.2503 46.6755 10.2656 48.1125 10.2656C49.5917 10.2656 50.3313 11.2712 50.3313 13.2824L50.3947 34.6509C50.3947 36.7039 49.6551 37.7305 48.1759 37.7305Z" fill="black"/>
<path d="M37.2912 20.6375C38.1788 19.7576 38.6226 18.6473 38.6226 17.3065V15.9238C38.538 15.002 38.2422 14.3107 37.735 13.8498C37.2279 13.347 36.4882 13.0956 35.5162 13.0956H30.3177C27.8665 13.0956 26.6408 14.4992 26.6408 17.3065V19.0034C26.6408 21.8106 27.8453 23.2143 30.2544 23.2143H32.0928C33.4875 23.2143 34.6075 22.8162 35.4528 22.0201L37.2912 20.6375ZM40.778 37.858C39.341 37.858 38.6226 36.9572 38.6226 35.1555V30.6932C38.6226 30.3581 38.4958 30.0019 38.2422 29.6248C37.9886 29.2058 37.6505 28.7868 37.2279 28.3678L35.3894 26.8595C34.3328 26.0634 33.3819 25.6654 32.5366 25.6654H30.2544C27.8453 25.6654 26.6408 26.8595 26.6408 29.2477V34.967C26.6408 36.8943 25.9012 37.858 24.422 37.858C22.9427 37.858 22.2031 36.8315 22.2031 34.7784V15.2325C22.2031 12.1738 23.8303 10.6445 27.0846 10.6445H37.6082C41.2429 10.6445 43.0602 12.0691 43.0602 14.9182V19.0662C42.8489 20.2813 41.9402 21.5592 40.3342 22.9C39.7003 23.4028 39.3833 23.9265 39.3833 24.4712C39.3833 24.974 39.6791 25.4978 40.2708 26.0424C41.9614 27.6346 42.8912 28.9335 43.0602 29.9391V35.0298C43.0602 36.9153 42.2995 37.858 40.778 37.858Z" fill="black"/>
<path d="M4.50108 28.1164V34.527C4.50108 36.7477 3.76146 37.858 2.28224 37.858C0.760745 37.858 0 36.8315 0 34.7784L0.0633953 15.2325C0.0633953 12.1738 1.77507 10.6445 5.19843 10.6445H16.1025C19.3145 10.6445 20.9205 12.0481 20.9205 14.8554V20.7003C20.9205 23.6751 19.2722 25.1626 15.9757 25.1626H8.05123C5.68446 25.1626 4.50108 26.1472 4.50108 28.1164ZM12.6157 13.0956H8.30481C5.76899 13.0956 4.50108 14.4783 4.50108 17.2436V19.0662C4.50108 21.4964 5.74786 22.7115 8.24141 22.7115H12.6791C15.2149 22.7115 16.4828 21.245 16.4828 18.3121V16.4895C16.4828 14.2269 15.1938 13.0956 12.6157 13.0956Z" fill="black"/>
<path d="M205.271 26.848C205.654 26.91 205.916 27.2704 205.839 27.6483C205.085 31.3394 203.205 34.7184 200.445 37.3223C197.515 40.0873 193.753 41.8269 189.733 42.2762C185.713 42.7255 181.655 41.8599 178.177 39.8112C174.699 37.7625 171.991 34.6431 170.467 30.9279C168.943 27.2128 168.686 23.1056 169.734 19.2319C170.782 15.3582 173.079 11.9304 176.274 9.47046C179.469 7.01052 183.388 5.65333 187.433 5.60559C191.243 5.56063 194.968 6.67942 198.107 8.80109C198.428 9.01833 198.495 9.45764 198.264 9.76691C198.035 10.0738 197.6 10.1367 197.281 9.92194C194.387 7.97675 190.957 6.95144 187.45 6.99283C183.71 7.03697 180.087 8.2918 177.132 10.5662C174.178 12.8406 172.055 16.0099 171.086 19.5914C170.116 23.1729 170.354 26.9703 171.764 30.4052C173.173 33.8402 175.676 36.7244 178.891 38.6185C182.107 40.5127 185.859 41.313 189.576 40.8976C193.293 40.4822 196.771 38.8738 199.48 36.3174C202.021 33.9202 203.756 30.8126 204.458 27.4172C204.536 27.0424 204.892 26.7866 205.271 26.848Z" fill="black"/>
<path d="M198.809 17.5232C199.038 17.3789 199.342 17.4456 199.48 17.6776C200.474 19.3556 201.1 21.225 201.315 23.1634C201.547 25.2633 201.289 27.388 200.562 29.3737C199.835 31.3593 198.657 33.1529 197.12 34.6161C195.583 36.0793 193.728 37.1731 191.697 37.813C189.667 38.4529 187.515 38.622 185.408 38.3071C183.301 37.9922 181.295 37.2018 179.544 35.9968C177.794 34.7918 176.347 33.2045 175.313 31.3571C174.359 29.6517 173.781 27.7667 173.616 25.8271C173.593 25.5594 173.803 25.3311 174.073 25.318C174.344 25.3048 174.574 25.5121 174.597 25.7801C174.755 27.5706 175.291 29.3101 176.172 30.885C177.132 32.602 178.478 34.0773 180.104 35.1973C181.731 36.3173 183.596 37.0519 185.554 37.3446C187.512 37.6372 189.512 37.4801 191.4 36.8854C193.287 36.2906 195.012 35.274 196.44 33.914C197.869 32.5541 198.963 30.887 199.639 29.0415C200.315 27.1959 200.554 25.2211 200.339 23.2694C200.141 21.4791 199.565 19.7521 198.651 18.2001C198.514 17.9678 198.58 17.6674 198.809 17.5232Z" fill="white"/>
<path d="M195.656 30.0178C196 30.2427 196.463 30.1496 196.666 29.7925C197.478 28.3628 197.94 26.7604 198.012 25.1143C198.094 23.2212 197.655 21.3416 196.743 19.6766C195.83 18.0117 194.478 16.624 192.832 15.6619C191.185 14.6999 189.305 14.1999 187.394 14.2152C185.483 14.2305 183.612 14.7607 181.981 15.749C180.35 16.7373 179.021 18.1465 178.136 19.8259C177.251 21.5053 176.843 23.3916 176.956 25.2832C177.054 26.928 177.543 28.5229 178.378 29.9395C178.587 30.2931 179.051 30.3787 179.391 30.1483C179.735 29.9153 179.82 29.4482 179.613 29.0878C178.933 27.8983 178.535 26.5671 178.453 25.1954C178.356 23.5729 178.706 21.9548 179.465 20.5143C180.224 19.0737 181.364 17.8649 182.763 17.0172C184.162 16.1695 185.767 15.7147 187.406 15.7016C189.046 15.6884 190.658 16.1174 192.07 16.9426C193.483 17.7677 194.642 18.9581 195.425 20.3862C196.208 21.8144 196.584 23.4267 196.514 25.0505C196.454 26.4233 196.078 27.7607 195.417 28.9609C195.216 29.3247 195.309 29.7904 195.656 30.0178Z" fill="black"/>
<ellipse cx="190.011" cy="22.9924" rx="1.26504" ry="1.25413" fill="black"/>
<ellipse cx="184.109" cy="19.6487" rx="1.26504" ry="1.25413" fill="black"/>
<ellipse cx="192.12" cy="27.5901" rx="1.68672" ry="1.67217" fill="black"/>
<ellipse cx="184.53" cy="25.0823" rx="1.68672" ry="1.67217" fill="black"/>
<ellipse cx="189.589" cy="31.7697" rx="0.843359" ry="0.836084" fill="black"/>
<ellipse cx="192.121" cy="20.0666" rx="0.843359" ry="0.836084" fill="black"/>
<ellipse cx="183.687" cy="29.2619" rx="0.843359" ry="0.836084" fill="black"/>
<ellipse cx="180.734" cy="22.1563" rx="0.421679" ry="0.418042" fill="black"/>
<ellipse cx="192.543" cy="31.3516" rx="0.421679" ry="0.418042" fill="black"/>
<ellipse cx="191.699" cy="34.6993" rx="0.421679" ry="0.418042" fill="black"/>
<ellipse cx="196.758" cy="30.5157" rx="0.421679" ry="0.418042" fill="black"/>
<ellipse cx="186.637" cy="33.0235" rx="0.421679" ry="0.418042" fill="black"/>
<ellipse cx="186.637" cy="29.6798" rx="0.421679" ry="0.418042" fill="black"/>
<ellipse cx="189.168" cy="26.336" rx="0.421679" ry="0.418042" fill="black"/>
<ellipse cx="194.226" cy="24.6641" rx="0.421679" ry="0.418042" fill="black"/>
<ellipse cx="180.734" cy="27.1719" rx="0.421679" ry="0.418042" fill="black"/>
<ellipse cx="187.48" cy="21.3204" rx="0.421679" ry="0.418042" fill="black"/>
<ellipse cx="187.48" cy="17.9766" rx="0.421679" ry="0.418042" fill="black"/>
<path d="M143.359 34.9609L141.828 35.6367C143.181 35.6367 143.857 36.0347 143.857 36.8308C143.857 37.585 143.202 37.9621 141.892 37.9621H128.135C124.712 37.9621 123 36.5794 123 33.8141V15.2737C123 12.4246 124.712 11 128.135 11H141.892C143.202 11 143.359 11.1649 143.359 11.9609C143.359 12.7989 143.359 12.4609 143.359 13.4609C143.359 20.2296 143.859 15.9609 142.898 16.3555L143.359 18.9609C143.359 21.1816 140.281 22.4609 142.859 22.4609L141.765 22.7527C143.16 22.7527 143.857 23.1088 143.857 23.8211C143.857 24.701 143.181 25.1409 141.828 25.1409H131.305C128.727 25.1409 143.359 25.2403 143.359 27.4609V31.9609C143.359 34.0559 140.697 34.9609 143.359 34.9609Z" fill="black"/>
<path d="M137.761 30.3304L137.027 30.7063C137.676 30.7063 138 30.9277 138 31.3706C138 31.7902 137.686 32 137.058 32H130.462C128.821 32 128 31.2308 128 29.6923V19.3776C128 17.7925 128.821 17 130.462 17H137.058C137.686 17 137.761 17.0917 137.761 17.5346C137.761 18.0008 137.761 17.8128 137.761 18.3691C137.761 22.1348 138.001 19.76 137.54 19.9794L137.761 21.429C137.761 22.6644 136.286 23.3761 137.522 23.3761L136.997 23.5385C137.666 23.5385 138 23.7366 138 24.1329C138 24.6224 137.676 24.8671 137.027 24.8671H131.982C130.746 24.8671 137.761 24.9224 137.761 26.1578V28.6614C137.761 29.8269 136.485 30.3304 137.761 30.3304Z" fill="white"/>
</svg>
