<svg width="212" height="48" viewBox="0 0 212 48" fill="none" xmlns="http://www.w3.org/2000/svg">
<path d="M151.531 25.4139C150.01 25.4139 149.249 26.4404 149.249 28.4935V34.7155C149.249 36.9361 148.51 38.0465 147.03 38.0465C145.509 38.0465 144.748 37.0199 144.748 34.9669L144.811 13.0956C144.811 11.0425 145.551 10.016 147.03 10.016C148.51 10.016 149.249 11.1054 149.249 13.2841V18.8776C149.249 21.0564 150.094 22.1458 151.785 22.1458C152.63 22.1458 153.729 21.2868 155.082 19.569L159.266 12.09C160.111 10.6654 160.956 9.95312 161.801 9.95312C162.393 9.95312 162.816 10.2045 163.069 10.7073C163.365 11.1682 163.513 11.5662 163.513 11.9014C163.513 12.3204 163.429 12.7185 163.26 13.0956L157.174 22.9628C156.793 23.3399 156.603 23.696 156.603 24.0312C156.603 24.5759 156.772 24.9739 157.11 25.2253L163.133 34.7155C163.386 35.2602 163.513 35.7001 163.513 36.0353C163.513 36.4962 163.323 36.9571 162.943 37.418C162.562 37.837 162.118 38.0465 161.611 38.0465C160.85 38.0465 160.069 37.4389 159.266 36.2238L153.687 27.3622C153.18 26.7756 152.736 26.3147 152.356 25.9795C151.975 25.6024 151.7 25.4139 151.531 25.4139Z" fill="#FC4C02"/>
<path d="M143.428 34.9609L141.897 35.6367C143.249 35.6367 143.925 36.0347 143.925 36.8308C143.925 37.585 143.27 37.9621 141.96 37.9621H128.203C124.78 37.9621 123.068 36.5794 123.068 33.8141V15.2737C123.068 12.4246 124.78 11 128.203 11H141.96C143.27 11 143.428 11.1649 143.428 11.9609C143.428 12.7989 143.428 12.4609 143.428 13.4609C143.428 20.2296 143.928 15.9609 142.967 16.3555L143.428 18.9609C143.428 21.1816 140.35 22.4609 142.928 22.4609L141.833 22.7527C143.228 22.7527 143.925 23.1088 143.925 23.8211C143.925 24.701 143.249 25.1409 141.897 25.1409H131.373C128.795 25.1409 143.428 25.2403 143.428 27.4609V31.9609C143.428 34.0559 140.765 34.9609 143.428 34.9609Z" fill="#FC4C02"/>
<path d="M137.83 30.3304L137.096 30.7063C137.744 30.7063 138.068 30.9277 138.068 31.3706C138.068 31.7902 137.754 32 137.126 32H130.53C128.889 32 128.068 31.2308 128.068 29.6923V19.3776C128.068 17.7925 128.889 17 130.53 17H137.126C137.754 17 137.83 17.0917 137.83 17.5346C137.83 18.0008 137.83 17.8128 137.83 18.3691C137.83 22.1348 138.069 19.76 137.609 19.9794L137.83 21.429C137.83 22.6644 136.354 23.3761 137.59 23.3761L137.065 23.5385C137.734 23.5385 138.068 23.7366 138.068 24.1329C138.068 24.6224 137.744 24.8671 137.096 24.8671H132.05C130.814 24.8671 137.83 24.9224 137.83 26.1578V28.6614C137.83 29.8269 136.553 30.3304 137.83 30.3304Z" fill="white"/>
<path d="M102.09 11.8387C102.09 11.0426 102.829 10.6445 104.309 10.6445H120.475C121.996 10.6445 122.757 11.0426 122.757 11.8387C122.757 12.6766 121.975 13.0956 120.411 13.0956H118.192C115.783 13.0956 114.579 14.185 114.579 16.3638V34.7156C114.579 36.8943 113.839 37.9837 112.36 37.9837C110.923 37.9837 110.204 36.8943 110.204 34.7156V16.3638C110.204 14.185 109 13.0956 106.591 13.0956H104.499C102.893 13.0956 102.09 12.6766 102.09 11.8387Z" fill="#FC4C02"/>
<path d="M93.6753 13.0956H89.3645C86.8286 13.0956 85.5607 14.4154 85.5607 17.0551V19.4433C85.5607 21.9573 86.8075 23.2143 89.3011 23.2143H93.8021C96.2957 23.2143 97.5425 21.664 97.5425 18.5635V16.2381C97.5425 14.1431 96.2534 13.0956 93.6753 13.0956ZM97.5425 34.2128V28.6821C97.5425 26.629 96.2534 25.6025 93.6753 25.6025H89.3645C86.8286 25.6025 85.5607 26.629 85.5607 28.6821V34.2756C85.5607 36.4544 84.8211 37.5437 83.3419 37.5437C81.8627 37.5437 81.123 36.5591 81.123 34.5899V15.1696C81.123 12.1529 82.6657 10.6445 85.7509 10.6445H96.7183C100.226 10.6445 101.98 12.1529 101.98 15.1696V34.527C101.98 36.5382 101.241 37.5437 99.7613 37.5437C98.2821 37.5437 97.5425 36.4334 97.5425 34.2128Z" fill="#FC4C02"/>
<path d="M65.9655 37.5428C64.5285 37.5428 63.8734 27.3823 63.8734 25.1617C63.8734 23.8209 63.5564 22.3544 62.9225 20.7623C62.3308 19.1282 61.4855 17.4313 60.3867 15.6715C60.0063 15.1268 59.6471 14.7288 59.3089 14.4774C58.9708 14.226 58.7173 14.0793 58.5482 14.0374C58.1678 14.0374 57.9776 14.3936 57.9776 15.1059V34.5261C57.9776 36.5373 57.2169 37.5428 55.6954 37.5428C54.2162 37.5428 53.4766 36.5373 53.4766 34.5261V15.043C53.4766 11.9844 54.7022 10.4551 57.1535 10.4551H58.358C59.8847 10.4551 61.2107 11.3259 62.5816 13.1755C62.7252 13.3692 62.825 13.5921 62.8821 13.8264C63.6753 17.0804 68.2988 17.091 69.1069 13.8407L69.1986 13.4718C69.6027 12.4008 70.4243 11.8168 71.1005 11.2721C71.819 10.7274 72.6431 10.4551 73.5729 10.4551H74.9042C77.3133 10.4551 78.5178 11.9844 78.5178 15.043V34.5261C78.5178 36.5373 77.7782 37.5428 76.2989 37.5428C74.8197 37.5428 74.0801 36.5373 74.0801 34.5261V15.1059C73.911 14.3936 73.6786 14.0374 73.3827 14.0374C72.9178 14.0374 72.3261 14.5821 71.6077 15.6715C70.4665 17.4313 69.6213 19.1282 69.0718 20.7623C68.5224 22.3544 68.2477 23.8209 68.2477 25.1617C68.2477 27.3823 67.4447 37.5428 65.9655 37.5428Z" fill="#FC4C02"/>
<path d="M48.2442 37.7324C46.8073 37.7324 46.0888 36.7059 46.0888 34.6528L46.0254 13.2215C46.0254 11.2522 46.7439 10.2676 48.1808 10.2676C49.6601 10.2676 50.3997 11.2732 50.3997 13.2843L50.4631 34.6528C50.4631 36.7059 49.7235 37.7324 48.2442 37.7324Z" fill="#FC4C02"/>
<path d="M37.3577 20.6375C38.2452 19.7576 38.689 18.6473 38.689 17.3065V15.9238C38.6044 15.002 38.3086 14.3107 37.8014 13.8498C37.2943 13.347 36.5546 13.0956 35.5826 13.0956H30.3842C27.9329 13.0956 26.7072 14.4992 26.7072 17.3065V19.0034C26.7072 21.8106 27.9117 23.2143 30.3208 23.2143H32.1592C33.5539 23.2143 34.6739 22.8162 35.5192 22.0201L37.3577 20.6375ZM40.8444 37.858C39.4074 37.858 38.689 36.9572 38.689 35.1555V30.6932C38.689 30.3581 38.5622 30.0019 38.3086 29.6248C38.055 29.2058 37.7169 28.7868 37.2943 28.3678L35.4558 26.8595C34.3992 26.0634 33.4483 25.6654 32.603 25.6654H30.3208C27.9117 25.6654 26.7072 26.8595 26.7072 29.2477V34.967C26.7072 36.8943 25.9676 37.858 24.4884 37.858C23.0091 37.858 22.2695 36.8315 22.2695 34.7784V15.2325C22.2695 12.1738 23.8967 10.6445 27.151 10.6445H37.6746C41.3093 10.6445 43.1266 12.0691 43.1266 14.9182V19.0662C42.9153 20.2813 42.0067 21.5592 40.4006 22.9C39.7667 23.4028 39.4497 23.9265 39.4497 24.4712C39.4497 24.974 39.7456 25.4978 40.3372 26.0424C42.0278 27.6346 42.9576 28.9335 43.1266 29.9391V35.0298C43.1266 36.9153 42.3659 37.858 40.8444 37.858Z" fill="#FC4C02"/>
<path d="M4.56944 28.1164V34.527C4.56944 36.7477 3.82982 37.858 2.3506 37.858C0.829105 37.858 0.0683594 36.8315 0.0683594 34.7784L0.131755 15.2325C0.131755 12.1738 1.84343 10.6445 5.26679 10.6445H16.1708C19.3828 10.6445 20.9889 12.0481 20.9889 14.8554V20.7003C20.9889 23.6751 19.3406 25.1626 16.044 25.1626H8.11959C5.75282 25.1626 4.56944 26.1472 4.56944 28.1164ZM12.6841 13.0956H8.37317C5.83735 13.0956 4.56944 14.4783 4.56944 17.2436V19.0662C4.56944 21.4964 5.81622 22.7115 8.30977 22.7115H12.7475C15.2833 22.7115 16.5512 21.245 16.5512 18.3121V16.4895C16.5512 14.2269 15.2621 13.0956 12.6841 13.0956Z" fill="#FC4C02"/>
<path d="M205.34 26.85C205.723 26.9119 205.985 27.2724 205.907 27.6503C205.154 31.3413 203.273 34.7203 200.513 37.3243C197.583 40.0892 193.821 41.8288 189.801 42.2781C185.781 42.7275 181.723 41.8618 178.245 39.8132C174.767 37.7645 172.06 34.645 170.536 30.9299C169.012 27.2147 168.754 23.1075 169.802 19.2339C170.851 15.3602 173.147 11.9323 176.342 9.47241C179.538 7.01248 183.456 5.65528 187.502 5.60754C191.311 5.56259 195.037 6.68137 198.175 8.80304C198.497 9.02028 198.563 9.45959 198.332 9.76886C198.104 10.0758 197.669 10.1386 197.349 9.9239C194.455 7.9787 191.026 6.9534 187.518 6.99478C183.778 7.03892 180.155 8.29375 177.201 10.5681C174.247 12.8425 172.123 16.0118 171.154 19.5934C170.185 23.1749 170.423 26.9723 171.832 30.4072C173.241 33.8421 175.744 36.7263 178.96 38.6205C182.175 40.5146 185.927 41.315 189.644 40.8995C193.361 40.4841 196.839 38.8757 199.549 36.3193C202.089 33.9221 203.824 30.8146 204.527 27.4191C204.604 27.0443 204.96 26.7885 205.34 26.85Z" fill="#FC4C02"/>
<path d="M198.877 17.5213C199.106 17.377 199.411 17.4436 199.548 17.6756C200.543 19.3537 201.169 21.2231 201.383 23.1614C201.615 25.2613 201.358 27.386 200.63 29.3717C199.903 31.3574 198.726 33.151 197.189 34.6142C195.652 36.0774 193.796 37.1711 191.766 37.811C189.735 38.451 187.583 38.62 185.476 38.3051C183.369 37.9902 181.363 37.1998 179.613 35.9948C177.863 34.7899 176.415 33.2025 175.381 31.3551C174.427 29.6497 173.85 27.7648 173.684 25.8252C173.661 25.5574 173.871 25.3292 174.142 25.316C174.412 25.3028 174.642 25.5102 174.666 25.7782C174.823 27.5686 175.359 29.3082 176.24 30.883C177.201 32.6 178.546 34.0754 180.173 35.1954C181.8 36.3153 183.664 37.05 185.622 37.3426C187.581 37.6353 189.581 37.4782 191.468 36.8834C193.356 36.2886 195.08 35.2721 196.509 33.9121C197.937 32.5521 199.032 30.8851 199.707 29.0395C200.383 27.194 200.623 25.2192 200.407 23.2674C200.209 21.4772 199.633 19.7502 198.719 18.1981C198.582 17.9659 198.649 17.6655 198.877 17.5213Z" fill="white"/>
<path d="M195.727 30.0159C196.07 30.2407 196.534 30.1477 196.736 29.7906C197.548 28.3609 198.011 26.7584 198.082 25.1123C198.164 23.2192 197.725 21.3397 196.813 19.6747C195.9 18.0097 194.549 16.622 192.902 15.66C191.255 14.698 189.376 14.1979 187.465 14.2132C185.553 14.2286 183.682 14.7587 182.051 15.747C180.421 16.7353 179.092 18.1445 178.206 19.8239C177.321 21.5033 176.913 23.3897 177.026 25.2812C177.124 26.926 177.613 28.5209 178.448 29.9375C178.657 30.2912 179.121 30.3767 179.461 30.1464C179.805 29.9134 179.89 29.4463 179.684 29.0858C179.003 27.8963 178.605 26.5651 178.523 25.1934C178.426 23.5709 178.776 21.9528 179.535 20.5123C180.295 19.0718 181.435 17.863 182.833 17.0153C184.232 16.1675 185.837 15.7128 187.477 15.6996C189.116 15.6865 190.728 16.1154 192.141 16.9406C193.553 17.7658 194.713 18.9561 195.495 20.3843C196.278 21.8125 196.654 23.4247 196.584 25.0486C196.525 26.4213 196.148 27.7587 195.487 28.959C195.287 29.3227 195.379 29.7884 195.727 30.0159Z" fill="#FC4C02"/>
<ellipse cx="190.079" cy="22.9924" rx="1.26504" ry="1.25413" fill="#FF7624"/>
<ellipse cx="184.175" cy="19.6487" rx="1.26504" ry="1.25413" fill="#FF7624"/>
<ellipse cx="192.189" cy="27.5901" rx="1.68672" ry="1.67217" fill="#FF7624"/>
<ellipse cx="184.597" cy="25.0823" rx="1.68672" ry="1.67217" fill="#FF7624"/>
<ellipse cx="189.658" cy="31.7716" rx="0.843359" ry="0.836084" fill="#FF7624"/>
<ellipse cx="192.187" cy="20.0666" rx="0.843359" ry="0.836084" fill="#FF7624"/>
<ellipse cx="183.754" cy="29.2638" rx="0.843359" ry="0.836084" fill="#FF7624"/>
<ellipse cx="180.803" cy="22.1563" rx="0.421679" ry="0.418042" fill="#FF7624"/>
<ellipse cx="192.609" cy="31.3536" rx="0.421679" ry="0.418042" fill="#FF7624"/>
<ellipse cx="191.765" cy="34.6973" rx="0.421679" ry="0.418042" fill="#FF7624"/>
<ellipse cx="196.826" cy="30.5177" rx="0.421679" ry="0.418042" fill="#FF7624"/>
<ellipse cx="186.707" cy="33.0255" rx="0.421679" ry="0.418042" fill="#FF7624"/>
<ellipse cx="186.707" cy="29.6817" rx="0.421679" ry="0.418042" fill="#FF7624"/>
<ellipse cx="189.236" cy="26.336" rx="0.421679" ry="0.418042" fill="#FF7624"/>
<ellipse cx="194.297" cy="24.6641" rx="0.421679" ry="0.418042" fill="#FF7624"/>
<ellipse cx="180.803" cy="27.1719" rx="0.421679" ry="0.418042" fill="#FF7624"/>
<ellipse cx="187.549" cy="21.3204" rx="0.421679" ry="0.418042" fill="#FF7624"/>
<ellipse cx="187.549" cy="17.9766" rx="0.421679" ry="0.418042" fill="#FF7624"/>
</svg>
